<?xml version="1.0" encoding="UTF-8" standalone="no"?>
<!-- Created with Inkscape (http://www.inkscape.org/) -->

<svg
   xmlns:dc="http://purl.org/dc/elements/1.1/"
   xmlns:cc="http://creativecommons.org/ns#"
   xmlns:rdf="http://www.w3.org/1999/02/22-rdf-syntax-ns#"
   xmlns:svg="http://www.w3.org/2000/svg"
   xmlns="http://www.w3.org/2000/svg"
   xmlns:sodipodi="http://sodipodi.sourceforge.net/DTD/sodipodi-0.dtd"
   xmlns:inkscape="http://www.inkscape.org/namespaces/inkscape"
   width="68.484093mm"
   height="110.47309mm"
   viewBox="0 0 68.484093 110.47309"
   version="1.1"
   id="svg25142"
   inkscape:version="0.92.2 (5c3e80d, 2017-08-06)"
   sodipodi:docname="falcon.svg">
  <defs
     id="defs25136" />
  <sodipodi:namedview
     id="base"
     pagecolor="#ffffff"
     bordercolor="#666666"
     borderopacity="1.0"
     inkscape:pageopacity="0.0"
     inkscape:pageshadow="2"
     inkscape:zoom="0.98994949"
     inkscape:cx="80.339482"
     inkscape:cy="151.46444"
     inkscape:document-units="mm"
     inkscape:current-layer="layer1"
     showgrid="false"
     fit-margin-top="0"
     fit-margin-left="0"
     fit-margin-right="0"
     fit-margin-bottom="0"
     inkscape:window-width="1680"
     inkscape:window-height="987"
     inkscape:window-x="-8"
     inkscape:window-y="-8"
     inkscape:window-maximized="1" />
  <metadata
     id="metadata25139">
    <rdf:RDF>
      <cc:Work
         rdf:about="">
        <dc:format>image/svg+xml</dc:format>
        <dc:type
           rdf:resource="http://purl.org/dc/dcmitype/StillImage" />
        <dc:title></dc:title>
      </cc:Work>
    </rdf:RDF>
  </metadata>
  <g
     inkscape:label="Layer 1"
     inkscape:groupmode="layer"
     id="layer1"
     transform="translate(0.35541286,-4.2603561)">
    <path
       inkscape:connector-curvature="0"
       style="fill:#000000;stroke-width:0.15916704"
       d="m 9.9516621,4.2627675 c -0.665642,0.136607 0.02323,2.170546 1.3074119,3.860228 0.826442,1.087374 4.698325,5.0783815 6.483326,6.6833145 0.656619,0.59032 1.105432,1.047105 0.997873,1.014926 -0.251941,-0.07534 -5.04767,-3.616058 -8.42636,-6.2213255 -1.4440899,-1.113488 -2.8720599,-2.176899 -3.1734489,-2.363166 -1.141431,-0.70545 -1.342094,0.114996 -0.459404,1.879473 0.44601,0.8914935 0.905274,1.4481495 2.283065,2.7672725 0.948569,0.908135 2.3756809,2.152412 3.1713809,2.765208 0.795652,0.612796 1.451277,1.164127 1.457277,1.225248 0.006,0.06112 -0.86647,-0.355869 -1.938901,-0.92656 -3.3145699,-1.763916 -5.5268439,-2.801181 -5.7727739,-2.706812 -0.60819,0.233376 0.09567,1.656771 1.472263,2.976563 0.417439,0.400243 1.602907,1.358167 2.633946,2.128554 1.0310409,0.77039 2.0886149,1.660589 2.3502459,1.978173 0.533839,0.648089 1.838153,1.623825 2.736784,2.04742 0.327379,0.154334 0.596863,0.356791 0.596863,0.450102 7.93e-4,0.09331 0.305982,0.33914 0.677994,0.545703 0.372079,0.206557 0.712642,0.416348 0.756542,0.466637 0.0438,0.0503 0.22279,0.170739 0.39791,0.267169 0.319968,0.176255 1.384345,1.901962 1.584915,2.569868 0.10106,0.336635 0.06136,0.358551 -0.659392,0.359151 -1.1004,0.0013 -1.947495,0.274021 -2.135786,0.687298 -0.127481,0.279799 -0.04503,0.601443 0.409276,1.59835 0.532151,1.167678 0.55435,1.27771 0.340548,1.706356 -0.19427,0.389454 -0.197051,0.578573 -0.01704,1.260906 0.116459,0.441526 0.358008,1.050721 0.536919,1.35392 0.304908,0.516702 0.310568,0.593752 0.0863,1.229384 -0.215511,0.610648 -0.21336,0.774507 0.02222,1.644862 0.24089,0.898847 0.240451,1.020818 -0.0062,1.747178 -0.222793,0.656162 -0.234363,0.890765 -0.07338,1.465543 0.10533,0.376301 0.359502,0.843114 0.564824,1.037664 0.454449,0.430681 0.461746,0.633199 0.05478,1.530139 -0.27269,0.601059 -0.290063,0.773681 -0.124024,1.233 0.16115,0.445411 0.148217,0.659617 -0.07803,1.290876 -0.332201,0.927132 -0.345782,1.818682 -0.03669,2.416392 0.283221,0.547698 0.519946,0.648023 1.530657,0.648023 0.430551,0 0.782899,0.0695 0.782899,0.153995 0,0.0845 -0.204406,0.388885 -0.454236,0.676445 -0.69242,0.797168 -0.819071,1.134618 -0.819071,2.183328 0,0.725339 0.07288,1.03823 0.293005,1.258321 0.199059,0.199091 0.325274,0.639077 0.393774,1.372526 0.07478,0.800701 0.2032,1.213689 0.49816,1.60042 0.351261,0.460478 0.698492,1.463569 0.659392,1.903759 -0.0076,0.08574 0.213355,0.300612 0.490927,0.477491 0.451299,0.287628 0.516165,0.42749 0.615465,1.3193 0.06269,0.563319 0.233969,1.152882 0.393259,1.355471 0.15521,0.197241 0.371805,0.657301 0.481107,1.022159 0.144921,0.483801 0.321636,0.714595 0.653706,0.852146 0.250431,0.10373 0.451451,0.233355 0.44545,0.288354 -0.0055,0.05503 -0.202488,0.488381 -0.437697,0.962731 l -0.427882,0.862481 -3.786849,1.071769 c -6.29862,1.783141 -11.4901469,2.636337 -17.7617059,2.918169 -1.76644105,0.07938 -2.05841605,0.190505 -1.79420605,0.684194 0.26638,0.497742 1.56815405,1.622272 1.96525405,1.697572 1.564819,0.29668 1.637059,0.331806 1.928047,0.927076 0.272992,0.558538 0.325911,0.587359 1.057302,0.581358 0.99664,-0.0077 1.548201,0.353852 1.764233,1.156002 0.15815,0.587222 0.1993,0.619085 0.796849,0.619085 0.499911,0 0.750321,0.11356 1.212331,0.54932 0.459849,0.4337 0.642826,0.517517 0.869196,0.396357 0.221321,-0.118449 0.32602,-0.0804 0.458369,0.166915 0.09427,0.176202 0.3228819,0.320394 0.5079819,0.320394 0.270888,0 0.207547,0.09295 -0.3240109,0.478007 -0.823132,0.596321 -0.860833,0.899128 -0.06356,0.510048 0.4453999,-0.217342 0.6826139,-0.25091 0.9353439,-0.13281 0.336281,0.157141 0.334577,0.166156 -0.216524,1.221115 -0.497559,0.95258 -0.532921,1.101985 -0.344681,1.442805 0.115359,0.209132 0.192231,0.467693 0.170532,0.574643 -0.02164,0.10694 0.142219,0.23979 0.364318,0.29559 0.26289,0.06599 0.404109,0.21209 0.404109,0.41806 0,0.762662 0.545536,2.141234 1.056267,2.668572 0.294301,0.30385 0.535884,0.626136 0.535884,0.716235 2.41e-4,0.0901 -0.158337,0.462833 -0.351917,0.828373 -0.30548,0.57675 -0.324567,0.715378 -0.145727,1.04955 0.153832,0.287419 0.303316,0.366408 0.590145,0.311607 0.47942,-0.0916 0.482071,0.08172 0.01447,0.961184 -0.31736,0.59731 -0.364162,0.889931 -0.328663,2.05827 0.05979,1.967802 0.579869,2.995415 1.161169,2.294951 0.100582,-0.121168 0.525923,-0.791257 0.945163,-1.488797 1.831859,-3.04791 5.410147,-7.643312 8.212418,-10.546643 0.633759,-0.656572 2.292218,-2.268056 3.685046,-3.581178 2.216451,-2.089629 2.539156,-2.341354 2.584857,-2.016414 0.02894,0.20419 0.440788,0.775404 0.915188,1.269172 0.674251,0.701702 0.862481,1.007661 0.862481,1.402501 0,0.378939 0.140685,0.628822 0.562756,0.999421 0.309449,0.271701 0.711081,0.494027 0.892453,0.494027 0.25486,0 0.301887,0.06307 0.206187,0.278535 -0.06803,0.153199 -0.153985,0.572503 -0.190685,0.932244 -0.06533,0.639961 -0.04855,0.665213 0.761711,1.163754 0.748009,0.46006 0.819237,0.55323 0.737939,0.95963 -0.09998,0.49992 0.1773,0.841944 0.849561,1.046964 0.64453,0.196551 1.114142,0.568368 1.114142,0.882119 0,0.875109 0.862087,1.646496 2.220537,1.986957 0.597,0.149619 0.786707,0.292637 1.080037,0.816488 0.31279,0.558599 0.459391,0.659006 1.213879,0.827855 l 0.858346,0.19172 0.07648,0.794268 c 0.09334,0.97164 0.515268,1.469721 1.471226,1.73736 1.030282,0.28847 1.564142,0.674646 1.90686,1.379244 0.228142,0.469022 0.481118,0.704869 0.974619,0.908989 0.5373,0.222211 0.716013,0.405728 0.922425,0.946198 0.328149,0.85928 1.151329,1.85983 1.530138,1.85983 0.567251,0 0.815872,0.20639 1.223182,1.01493 0.692838,1.37533 0.975051,1.69085 1.510501,1.69085 0.265052,0 0.687411,-0.12115 0.938961,-0.26975 0.526431,-0.31098 0.471467,-0.34396 0.990637,0.58653 0.409261,0.73346 0.724985,0.91223 1.665015,0.94103 0.46876,0.0144 0.519901,0.0645 0.542603,0.5333 0.01371,0.28451 0.0091,0.62471 -0.01035,0.75602 -0.07955,0.53947 -0.01905,0.84577 0.219626,1.10949 0.231129,0.25542 0.218019,0.34617 -0.161232,1.101233 -0.523621,1.04249 -0.629727,1.7026 -0.401526,2.4939 0.0995,0.34501 0.249314,1.73749 0.333314,3.09439 0.08398,1.3569 0.225824,3.0042 0.315224,3.66076 0.31591,2.32107 1.420969,4.37558 2.027267,3.76928 0.13816,-0.13816 0.279522,-0.87231 0.376722,-1.95544 0.604401,-6.73488 0.777213,-7.98301 0.777213,-5.60844 0,1.584 0.284668,4.42587 0.568958,5.67923 0.25274,1.11423 1.128344,2.58303 1.698603,2.84996 h 0.0021 c 0.668668,0.31295 0.755811,-0.0656 0.774113,-3.3724 0.0093,-1.66845 0.06557,-3.67801 0.125574,-4.46588 0.121528,-1.59669 0.07252,-1.72171 0.502292,1.27331 0.229421,1.59877 0.560047,2.48885 1.203545,3.24062 0.661562,0.77291 1.12063,0.85478 1.277959,0.2279 0.148841,-0.59321 0.160435,-4.56382 0.0217,-7.44761 -0.12023,-2.49898 -0.09558,-2.53546 0.533302,-0.79582 0.396409,1.09659 1.471967,2.30787 2.049486,2.30787 0.35619,0 0.359984,-0.0192 0.253214,-1.39267 -0.05955,-0.76599 -0.248788,-2.13062 -0.420129,-3.03238 -0.413081,-2.174093 -0.409572,-2.248643 0.07855,-1.790073 1.006028,0.945123 1.281438,-0.60945 0.591178,-3.3352 -0.373111,-1.47338 -2.653488,-7.88848 -3.734139,-10.504781 -0.126561,-0.3064 -0.278464,-0.950992 -0.337963,-1.43247 -0.236741,-1.91611 -0.949576,-3.690061 -2.653586,-6.605283 -1.07088,-1.832078 -1.997347,-3.031516 -2.967778,-3.841626 -2.761168,-2.305079 -3.473984,-3.038456 -3.717086,-3.824054 -0.229029,-0.74014 -0.265158,-0.773679 -0.915189,-0.850077 -0.62267,-0.07323 -0.805233,-0.219401 -2.285132,-1.83038 -3.061279,-3.33243 -3.80719,-4.674452 -3.002399,-5.402771 0.169828,-0.153701 0.689084,-0.858789 1.153933,-1.56683 0.621998,-0.947389 0.792191,-1.277475 0.832508,-1.783353 0.06599,-0.09664 0.117761,-0.171056 0.195853,-0.286805 0.880282,-1.304621 1.097542,-1.528689 1.703774,-1.755447 0.16324,-0.06106 0.385085,-0.15389 0.492474,-0.20619 0.107381,-0.0523 0.245777,-0.06382 0.307475,-0.02532 0.16959,0.105699 0.30104,-0.157557 0.20774,-0.415996 -0.128151,-0.354579 -0.661048,-0.606248 -1.100709,-0.519348 -0.11276,0.0223 -0.301328,-0.01339 -0.437697,-0.0832 -0.131652,-0.06752 -0.40734,-0.135713 -0.6134,-0.151414 -0.2922,-0.02217 -0.391252,-0.05595 -0.448553,-0.155545 -0.04899,-0.08532 -0.19544,-0.179242 -0.440799,-0.282155 -1.167291,-0.491458 -1.725731,-0.552569 -3.324862,-0.365868 -0.69246,0.08084 -1.536237,0.16487 -1.875338,0.187068 -0.149468,0.0098 -0.360151,0.03641 -0.57309,0.06667 -1.670894,-0.553654 -2.572967,-2.617341 -3.720703,-8.343162 -0.548402,-2.735739 -0.566666,-3.172323 -0.153996,-3.696931 l 0.312643,-0.397393 -0.500745,-0.77773 c -0.480812,-0.747321 -0.505783,-0.869301 -0.627354,-3.085084 -0.140938,-2.56894 -0.327313,-3.339631 -1.581814,-6.540685 -1.128191,-2.878721 -2.759583,-5.440549 -4.244703,-6.664707 -0.59628,-0.491501 -1.143243,-1.244421 -4.284493,-5.894216 -3.501541,-5.183227 -5.6013,-7.899278 -6.83369,-8.839253 -0.307401,-0.2344635 -0.600707,-0.3850935 -0.650608,-0.3348625 -0.05023,0.05023 0.03162,0.5295585 0.181901,1.0650515 0.15021,0.535493 0.245573,1.001329 0.211873,1.035079 -0.03369,0.03373 -0.701894,-0.707009 -1.484664,-1.645896 -1.535038,-1.8411965 -4.337669,-4.8110755 -4.54029,-4.8110755 -0.300169,0 -0.292481,0.685673 0.01757,1.617988 0.401971,1.208765 1.232659,2.651512 2.547649,4.4250535 0.53426,0.72054 0.947274,1.334262 0.917773,1.363742 -0.02948,0.02949 -1.663761,-1.458902 -3.631819,-3.3072915 -4.383236,-4.116696 -5.873721,-5.399153 -6.1959809,-5.333012 z"
       id="path1025-8" />
  </g>
</svg>
