<?xml version="1.0" encoding="UTF-8" standalone="no"?>
<!-- Created with Inkscape (http://www.inkscape.org/) -->

<svg
   xmlns:dc="http://purl.org/dc/elements/1.1/"
   xmlns:cc="http://creativecommons.org/ns#"
   xmlns:rdf="http://www.w3.org/1999/02/22-rdf-syntax-ns#"
   xmlns:svg="http://www.w3.org/2000/svg"
   xmlns="http://www.w3.org/2000/svg"
   xmlns:sodipodi="http://sodipodi.sourceforge.net/DTD/sodipodi-0.dtd"
   xmlns:inkscape="http://www.inkscape.org/namespaces/inkscape"
   version="1.1"
   id="svg3535"
   xml:space="preserve"
   width="816"
   height="816"
   viewBox="0 0 816 816"
   sodipodi:docname="bursting-tiles-blue-color.svg"
   inkscape:version="0.92.4 (5da689c313, 2019-01-14)"><metadata
     id="metadata3541"><rdf:RDF><cc:Work
         rdf:about=""><dc:format>image/svg+xml</dc:format><dc:type
           rdf:resource="http://purl.org/dc/dcmitype/StillImage" /><dc:title></dc:title></cc:Work></rdf:RDF></metadata><defs
     id="defs3539"><clipPath
       clipPathUnits="userSpaceOnUse"
       id="clipPath3551"><path
         d="M 0,612 H 612 V 0 H 0 Z"
         id="path3549"
         inkscape:connector-curvature="0" /></clipPath><clipPath
       clipPathUnits="userSpaceOnUse"
       id="clipPath3559"><path
         d="M 0,487.563 H 613 V 0 H 0 Z"
         id="path3557"
         inkscape:connector-curvature="0" /></clipPath><radialGradient
       fx="0"
       fy="0"
       cx="0"
       cy="0"
       r="1"
       gradientUnits="userSpaceOnUse"
       gradientTransform="matrix(276.92197,0,0,-276.92197,306.5,243.78125)"
       spreadMethod="pad"
       id="radialGradient3571"><stop
         style="stop-opacity:1;stop-color:#ffffff"
         offset="0"
         id="stop3565" /><stop
         style="stop-opacity:1;stop-color:#00adef"
         offset="0.617978"
         id="stop3567" /><stop
         style="stop-opacity:1;stop-color:#2c3364"
         offset="1"
         id="stop3569" /></radialGradient></defs><sodipodi:namedview
     pagecolor="#ffffff"
     bordercolor="#666666"
     borderopacity="1"
     objecttolerance="10"
     gridtolerance="10"
     guidetolerance="10"
     inkscape:pageopacity="0"
     inkscape:pageshadow="2"
     inkscape:window-width="1920"
     inkscape:window-height="1018"
     id="namedview3537"
     showgrid="false"
     inkscape:zoom="0.87072382"
     inkscape:cx="449.49153"
     inkscape:cy="397.62712"
     inkscape:window-x="-8"
     inkscape:window-y="-8"
     inkscape:window-maximized="1"
     inkscape:current-layer="g3543" /><g
     id="g3543"
     inkscape:groupmode="layer"
     inkscape:label="abstract-791-publicdomainvectors.org"
     transform="matrix(1.3333333,0,0,-1.3333333,0,816)"><g
       id="g3545"><g
         id="g3547"
         clip-path="url(#clipPath3551)"><g
           id="g3553"><g
             id="g3555" /><g
             id="g3585"><g
               clip-path="url(#clipPath3559)"
               id="g3583"><g
                 id="g3581"><g
                   id="g3579"><g
                     id="g3577"><g
                       id="g3575"><path
                         d="m 0,357.535 c 0.015,-0.005 0.03,-0.011 0.044,-0.016 1.74,3.312 3.442,6.607 5.143,9.882 C 3.463,365.935 1.731,364.476 0,363.011 Z m 0,-11.076 c 1.24,2.417 2.482,4.822 3.725,7.212 -1.272,0.482 -2.504,0.976 -3.725,1.447 z m 0,-21.082 c 0.498,-0.303 0.998,-0.61 1.5,-0.922 2.003,3.948 3.964,7.873 5.903,11.764 -1.511,0.755 -2.986,1.495 -4.429,2.223 C 1.984,336.5 0.993,334.55 0,332.591 Z m 0,-3.919 c 0.102,0.203 0.204,0.408 0.305,0.613 -0.101,0.065 -0.203,0.128 -0.305,0.193 z M 0,306.83 c 1.961,3.946 3.888,7.863 5.806,11.751 -1.57,1.001 -3.115,1.968 -4.615,2.928 C 0.795,320.716 0.398,319.922 0,319.129 Z m 0,-15.817 c 1.292,2.661 2.579,5.308 3.87,7.941 -1.322,1.025 -2.607,2.042 -3.87,3.04 z m 0,-8.323 c 1.065,-0.993 2.15,-2.002 3.246,-3.028 2.305,4.84 4.615,9.623 6.873,14.371 -1.794,1.412 -3.533,2.798 -5.244,4.131 C 3.249,294.841 1.631,291.495 0,288.128 Z m 0,-9.819 c 0.689,1.443 1.375,2.88 2.061,4.313 -0.692,0.665 -1.38,1.322 -2.061,1.969 z m 0,-16.227 c 0.423,-0.478 0.849,-0.958 1.278,-1.444 2.472,5.28 4.917,10.507 7.355,15.681 -1.898,1.804 -3.729,3.575 -5.52,5.293 C 2.075,274.007 1.039,271.828 0,269.643 Z M 0,229.96 c 2.198,4.774 4.389,9.51 6.523,14.204 -1.978,2.325 -3.934,4.553 -5.802,6.751 C 0.48,250.404 0.241,249.895 0,249.382 Z m 0,-4.906 c 1.942,-2.624 3.918,-5.347 5.966,-8.139 2.749,6.184 5.507,12.291 8.219,18.333 -2.225,2.557 -4.352,5.075 -6.442,7.492 C 5.193,237.158 2.617,231.519 0,225.82 Z m 0,-21.421 c 1.435,3.2 2.863,6.381 4.285,9.541 -1.456,2.053 -2.887,4.06 -4.285,6.031 z M 0,187.03 c 1.15,-1.894 2.32,-3.822 3.508,-5.784 2.998,6.903 5.998,13.719 8.93,20.452 -2.366,3.316 -4.632,6.548 -6.856,9.654 C 3.739,207.222 1.875,203.062 0,198.869 Z m 0,-13.824 c 0.655,1.498 1.307,2.994 1.957,4.484 -0.659,1.121 -1.312,2.229 -1.957,3.326 z m 0,-31.523 c 0.229,-0.456 0.459,-0.914 0.689,-1.371 3.29,7.769 6.534,15.44 9.751,23.007 C 7.915,167.592 5.481,171.72 3.128,175.71 2.088,173.322 1.045,170.928 0,168.521 Z M 0,96.904 c 2.702,6.592 5.363,13.114 7.998,19.566 -2.726,5.569 -5.317,10.959 -7.841,16.121 C 0.104,132.464 0.053,132.341 0,132.217 Z M 0,83.451 c 2.36,-5.754 4.814,-11.705 7.373,-17.878 3.832,9.78 7.612,19.4 11.343,28.867 -3.143,6.44 -6.153,12.634 -9.037,18.578 C 6.483,105.193 3.254,97.268 0,89.231 Z M 0,46.809 C 1.691,51.115 3.37,55.392 5.039,59.64 3.318,63.962 1.64,68.183 0,72.297 Z M 4.762,0 C 8.696,10.522 12.6,20.862 16.424,31.05 12.999,39.666 9.709,47.884 6.585,55.761 4.404,50.197 2.21,44.584 0,38.92 V 8.217 C 0.906,5.515 1.824,2.775 2.753,0 Z M 587.24,341.887 c -30.176,2.709 -57.92,5.212 -83.523,7.528 0.097,-13.839 0.193,-28.078 0.217,-42.717 26.788,-4.203 55.936,-8.775 87.754,-13.784 -1.534,16.865 -3.006,33.171 -4.448,48.973 m -98.577,-54.298 c -24.047,4.616 -46.32,8.887 -66.981,12.846 -1.009,-13.496 -2.115,-27.33 -3.166,-41.566 21.423,-5.741 44.575,-11.961 69.673,-18.681 0.159,16.284 0.28,32.081 0.474,47.401 m 85.401,199.41 c -25.364,-2.876 -48.966,-5.573 -71.003,-8.049 0.084,-10.358 0.084,-20.958 0.162,-31.841 22.91,1.431 47.519,2.99 74.04,4.685 -1.117,12.075 -2.194,23.79 -3.199,35.205 M 488.093,230.174 c -25.322,7.204 -48.658,13.843 -70.239,19.97 -1.15,-14.864 -2.267,-30.157 -3.476,-45.881 22.401,-8.289 46.717,-17.272 73.196,-27.075 0.224,18.211 0.38,35.875 0.519,52.986 M 613,58.353 c -1.89,21.02 -3.75,41.368 -5.561,61.061 -37.739,14.654 -71.82,27.895 -102.757,39.873 0.115,-19.87 0.241,-40.433 0.316,-61.712 C 537.348,81.908 573.152,64.549 613,45.247 Z M 487.464,165.965 c -26.728,10.369 -51.245,19.887 -73.818,28.644 -1.251,-16.463 -2.585,-33.415 -3.876,-50.889 23.472,-11.39 49.074,-23.786 77.096,-37.362 0.171,20.56 0.392,40.405 0.598,59.607 m -70.569,196.861 c -17.657,1.408 -34.207,2.751 -49.767,3.983 -1.485,-10.565 -2.957,-21.37 -4.495,-32.419 15.965,-2.329 32.982,-4.832 51.181,-7.476 1.094,12.264 2.056,24.235 3.081,35.912 m -66.576,-48.709 c -14.668,2.821 -28.478,5.449 -41.494,7.952 -1.988,-10.49 -4.034,-21.197 -6.143,-32.138 13.261,-3.562 27.353,-7.35 42.37,-11.363 1.823,12.124 3.551,23.974 5.267,35.549 m -48.95,9.381 c -11.888,2.272 -23.139,4.442 -33.808,6.484 -2.218,-9.419 -4.477,-19.03 -6.763,-28.822 10.809,-2.889 22.216,-5.958 34.298,-9.195 2.136,10.73 4.21,21.243 6.273,31.533 m 106.093,-70.399 c -19.281,5.477 -37.224,10.581 -53.981,15.345 -1.779,-12.884 -3.618,-26.084 -5.499,-39.625 17.22,-6.367 35.709,-13.215 55.635,-20.575 1.303,15.371 2.613,30.309 3.845,44.855 M 376.03,487.563 c -12.839,-2.038 -25.05,-3.968 -36.677,-5.815 -1.404,-7.375 -2.833,-14.877 -4.305,-22.522 11.837,1.323 24.29,2.744 37.403,4.184 1.201,8.208 2.419,16.252 3.579,24.153 M 293.792,285.415 c -12.118,3.444 -23.563,6.694 -34.395,9.779 -2.358,-10.106 -4.814,-20.409 -7.251,-30.922 10.958,-4.061 22.565,-8.35 34.869,-12.9 2.292,11.595 4.592,22.936 6.777,34.043 m 128.36,138.583 c -16.711,-0.509 -32.443,-1.009 -47.289,-1.461 -1.304,-9.35 -2.656,-18.906 -3.976,-28.664 15.218,-0.39 31.377,-0.796 48.576,-1.248 0.905,10.702 1.778,21.154 2.689,31.373 m -85.14,-199.653 c -15.505,6.014 -30.015,11.656 -43.632,16.931 -2.362,-12.269 -4.734,-24.828 -7.206,-37.677 13.873,-6.721 28.691,-13.905 44.56,-21.592 2.148,14.47 4.249,28.575 6.278,42.338 m -51.403,19.947 c -12.346,4.787 -23.974,9.313 -34.968,13.568 -2.544,-10.861 -5.146,-21.944 -7.801,-33.262 11.115,-5.38 22.904,-11.095 35.432,-17.168 2.495,12.567 4.967,24.849 7.337,36.862 m -11.245,136.826 c -9.664,0.611 -18.886,1.192 -27.685,1.746 -2.082,-7.777 -4.24,-15.685 -6.412,-23.729 8.876,-1.132 18.189,-2.316 27.961,-3.57 2.07,8.671 4.122,17.189 6.136,25.553 m -45.409,-43.735 c -8.299,1.584 -16.219,3.107 -23.792,4.561 -2.36,-7.849 -4.769,-15.822 -7.216,-23.93 7.593,-2.045 15.558,-4.174 23.899,-6.408 2.423,8.741 4.8,17.335 7.109,25.777 m -7.947,71.456 c -6.995,-0.03 -13.72,-0.077 -20.189,-0.113 -2.076,-6.336 -4.189,-12.763 -6.335,-19.276 6.48,-0.36 13.234,-0.701 20.255,-1.073 2.113,6.922 4.21,13.741 6.269,20.462 m 67.398,30.755 c -9.388,-0.722 -18.365,-1.426 -26.963,-2.096 -1.88,-6.889 -3.75,-13.884 -5.673,-20.997 8.678,0.214 17.758,0.446 27.252,0.679 1.804,7.597 3.633,15.066 5.384,22.414 M 220.379,306.286 c -8.352,2.367 -16.318,4.627 -23.916,6.8 -2.514,-8.322 -5.069,-16.784 -7.657,-25.387 7.619,-2.821 15.608,-5.776 23.998,-8.877 2.59,9.318 5.127,18.47 7.575,27.464 m -28.317,8.05 c -7.082,2.007 -13.852,3.946 -20.351,5.788 -2.504,-7.641 -5.083,-15.396 -7.646,-23.273 6.483,-2.394 13.256,-4.903 20.337,-7.525 2.611,8.474 5.15,16.812 7.66,25.01 m 53.205,-54.389 c -10.11,3.922 -19.688,7.646 -28.787,11.168 -2.652,-9.761 -5.313,-19.704 -8.069,-29.839 9.155,-4.429 18.805,-9.099 28.999,-14.047 2.65,11.131 5.308,22.034 7.857,32.718 m -34.03,13.202 c -8.391,3.259 -16.389,6.357 -24.009,9.319 -2.663,-8.84 -5.374,-17.838 -8.137,-26.984 7.628,-3.7 15.635,-7.586 24.061,-11.656 2.758,9.954 5.428,19.73 8.085,29.321 m 29.516,200.159 c -6.872,-1.239 -13.49,-2.402 -19.879,-3.534 -1.793,-5.505 -3.663,-11.094 -5.501,-16.743 6.414,0.851 13.064,1.718 19.98,2.648 1.871,5.959 3.646,11.837 5.4,17.629 m -63.53,-126.009 c -6.113,1.172 -11.995,2.29 -17.647,3.386 -2.362,-6.72 -4.738,-13.539 -7.19,-20.453 5.635,-1.515 11.495,-3.089 17.603,-4.721 2.434,7.373 4.858,14.633 7.234,21.788 m -5.253,48.179 c -5.356,0.219 -10.535,0.385 -15.537,0.576 -2.136,-5.734 -4.274,-11.536 -6.483,-17.414 4.985,-0.495 10.14,-1.012 15.49,-1.541 2.201,6.206 4.377,12.331 6.53,18.379 m -33.979,-40.657 c -4.68,0.891 -9.193,1.77 -13.566,2.605 -2.274,-5.873 -4.622,-11.815 -6.964,-17.83 4.333,-1.16 8.813,-2.366 13.458,-3.609 2.405,6.363 4.743,12.638 7.072,18.834 m 30.512,-33.786 c -6.098,1.739 -11.962,3.393 -17.591,5.001 -2.485,-7.073 -5.023,-14.244 -7.564,-21.523 5.607,-2.065 11.434,-4.23 17.516,-6.479 2.566,7.786 5.124,15.45 7.639,23.001 m -20.866,5.931 c -5.294,1.5 -10.387,2.958 -15.302,4.351 -2.466,-6.571 -4.911,-13.232 -7.438,-19.98 4.875,-1.801 9.936,-3.676 15.196,-5.622 2.575,7.184 5.06,14.269 7.544,21.251 m -18.165,5.165 c -4.634,1.323 -9.106,2.6 -13.434,3.82 -2.383,-6.138 -4.834,-12.352 -7.283,-18.644 4.277,-1.578 8.71,-3.223 13.304,-4.92 2.483,6.671 4.992,13.25 7.413,19.744 m 29.822,-38.825 c -6.079,2.35 -11.898,4.625 -17.501,6.79 -2.66,-7.445 -5.276,-15.008 -7.969,-22.679 5.56,-2.688 11.345,-5.505 17.397,-8.429 2.734,8.235 5.424,16.337 8.073,24.318 m 28.865,151.563 c -5.323,-0.625 -10.473,-1.243 -15.456,-1.828 -1.912,-5.14 -3.85,-10.334 -5.828,-15.597 4.976,0.329 10.127,0.699 15.447,1.06 1.961,5.522 3.908,10.977 5.837,16.365 M 120.541,308.343 c -4.581,1.785 -9.014,3.485 -13.277,5.152 -2.515,-6.42 -5.051,-12.929 -7.623,-19.516 4.215,-2.041 8.588,-4.157 13.119,-6.358 2.604,7.003 5.209,13.91 7.781,20.722 m 1.713,49.497 c -4.159,0.794 -8.177,1.567 -12.073,2.316 -2.249,-5.527 -4.524,-11.12 -6.823,-16.778 3.858,-1.031 7.831,-2.111 11.951,-3.204 2.348,5.963 4.666,11.846 6.945,17.666 m 13.915,71.829 c -3.848,-0.33 -7.577,-0.638 -11.214,-0.952 -1.916,-4.512 -3.829,-9.079 -5.767,-13.687 3.606,0.122 7.329,0.246 11.141,0.365 1.97,4.806 3.9,9.567 5.84,14.274 M 95.076,363.051 c -3.329,0.631 -6.551,1.258 -9.689,1.858 -2.151,-4.941 -4.315,-9.928 -6.508,-14.967 3.09,-0.833 6.269,-1.693 9.555,-2.561 2.257,5.278 4.452,10.5 6.642,15.67 m 18.814,-26.489 c -4.105,1.168 -8.087,2.286 -11.926,3.389 -2.353,-5.763 -4.711,-11.596 -7.116,-17.499 3.794,-1.408 7.725,-2.855 11.781,-4.358 2.454,6.233 4.841,12.386 7.261,18.468 m 8.348,59.066 c -3.781,0.166 -7.449,0.34 -11.021,0.484 -2.059,-4.854 -4.105,-9.762 -6.206,-14.719 3.534,-0.373 7.171,-0.77 10.926,-1.167 2.139,5.191 4.239,10.323 6.301,15.402 M 87.08,344.185 c -3.272,0.924 -6.444,1.833 -9.528,2.707 -2.23,-5.126 -4.453,-10.307 -6.759,-15.543 3.03,-1.128 6.158,-2.28 9.378,-3.47 2.34,5.495 4.643,10.933 6.909,16.306 m 18.064,-29.866 c -4.051,1.566 -7.964,3.089 -11.75,4.558 -2.441,-6.014 -4.923,-12.106 -7.431,-18.271 3.728,-1.811 7.591,-3.678 11.586,-5.614 2.562,6.528 5.106,12.964 7.595,19.327 m -13.961,5.416 c -3.593,1.395 -7.078,2.742 -10.447,4.056 -2.384,-5.649 -4.799,-11.368 -7.228,-17.15 3.316,-1.607 6.741,-3.266 10.278,-4.981 2.513,6.094 4.951,12.122 7.397,18.075 m -12.42,4.819 c -3.211,1.243 -6.328,2.445 -9.348,3.627 -2.307,-5.329 -4.658,-10.709 -7.022,-16.154 2.964,-1.439 6.023,-2.92 9.173,-4.446 2.435,5.722 4.812,11.382 7.197,16.973 m 24.06,90.987 c -3.063,-0.116 -6.044,-0.234 -8.946,-0.33 -1.87,-4.176 -3.79,-8.386 -5.682,-12.638 2.874,-0.05 5.825,-0.113 8.852,-0.17 1.923,4.42 3.894,8.805 5.776,13.138 M 73.372,367.213 c -2.723,0.523 -5.388,1.021 -7.968,1.524 -2.054,-4.465 -4.12,-8.97 -6.19,-13.522 2.537,-0.691 5.153,-1.382 7.835,-2.101 2.127,4.746 4.24,9.445 6.323,14.099 m 0.012,22.498 c -2.55,0.206 -5.035,0.414 -7.456,0.619 -1.886,-4.082 -3.833,-8.201 -5.779,-12.356 2.386,-0.359 4.837,-0.71 7.342,-1.094 1.955,4.315 3.936,8.59 5.893,12.831 m 2.629,-42.382 c -2.954,0.834 -5.823,1.654 -8.612,2.45 -2.169,-4.864 -4.343,-9.78 -6.582,-14.74 2.738,-1.019 5.557,-2.06 8.465,-3.131 2.299,5.194 4.501,10.339 6.729,15.421 m -10.251,2.916 c -2.668,0.764 -5.269,1.503 -7.806,2.219 -2.133,-4.622 -4.265,-9.284 -6.407,-13.996 2.488,-0.918 5.036,-1.869 7.661,-2.834 2.205,4.919 4.372,9.79 6.552,14.611 m -9.293,2.643 c -2.424,0.697 -4.794,1.371 -7.108,2.019 -2.042,-4.402 -4.162,-8.84 -6.232,-13.324 2.264,-0.833 4.577,-1.701 6.964,-2.576 2.146,4.672 4.266,9.297 6.376,13.881 M 67.91,328.767 c -2.885,1.129 -5.699,2.216 -8.433,3.269 -2.258,-5.043 -4.539,-10.139 -6.827,-15.289 2.683,-1.284 5.424,-2.635 8.263,-4.005 2.358,5.4 4.684,10.739 6.997,16.025 m -10.034,3.893 c -2.619,1.007 -5.153,1.998 -7.627,2.959 -2.18,-4.783 -4.399,-9.616 -6.634,-14.494 2.416,-1.179 4.906,-2.378 7.466,-3.617 2.294,5.101 4.543,10.154 6.795,15.152 m 36.392,102.515 c -2.669,-0.339 -5.277,-0.678 -7.819,-0.974 -1.718,-3.704 -3.495,-7.444 -5.239,-11.204 2.521,0.2 5.088,0.381 7.734,0.583 1.778,3.901 3.571,7.76 5.324,11.595 M 55.437,370.65 c -2.276,0.436 -4.496,0.869 -6.667,1.279 -1.953,-4.075 -3.899,-8.187 -5.881,-12.336 2.128,-0.566 4.303,-1.16 6.537,-1.753 2.022,4.306 4.01,8.577 6.011,12.81 m 7.236,33.266 c -2.185,0.041 -4.33,0.064 -6.427,0.094 -1.764,-3.65 -3.563,-7.338 -5.361,-11.049 2.06,-0.152 4.162,-0.32 6.322,-0.475 1.845,3.845 3.669,7.652 5.466,11.43 M 40.189,373.573 c -1.924,0.368 -3.813,0.719 -5.648,1.085 -1.867,-3.744 -3.694,-7.523 -5.587,-11.328 1.801,-0.48 3.645,-0.976 5.528,-1.483 1.916,3.939 3.816,7.851 5.707,11.726 m 8.017,-18.338 c -2.221,0.637 -4.389,1.259 -6.513,1.852 -2.005,-4.209 -4.069,-8.447 -6.07,-12.728 2.072,-0.769 4.2,-1.549 6.375,-2.36 2.104,4.451 4.148,8.865 6.208,13.236 m -7.76,2.207 c -2.037,0.58 -4.034,1.141 -5.976,1.699 -1.947,-4.024 -3.923,-8.073 -5.907,-12.171 1.906,-0.7 3.84,-1.434 5.84,-2.16 2.019,4.244 4.024,8.453 6.043,12.632 m -7.123,2.025 c -1.87,0.54 -3.713,1.052 -5.503,1.563 -1.921,-3.854 -3.831,-7.742 -5.753,-11.657 1.752,-0.645 3.541,-1.314 5.375,-1.989 1.977,4.062 3.934,8.087 5.881,12.083 m 7.412,-20.155 c -2.167,0.84 -4.287,1.654 -6.345,2.461 -2.055,-4.344 -4.161,-8.724 -6.266,-13.143 2.016,-0.97 4.077,-1.973 6.192,-2.999 2.164,4.601 4.305,9.16 6.419,13.681 m -7.559,2.931 c -1.979,0.777 -3.931,1.511 -5.812,2.257 -1.987,-4.149 -4.056,-8.332 -6.091,-12.549 1.846,-0.889 3.734,-1.808 5.666,-2.746 2.107,4.384 4.17,8.728 6.237,13.038 m -6.927,2.69 c -1.816,0.715 -3.595,1.412 -5.348,2.073 -1.965,-3.973 -3.917,-7.973 -5.922,-12.005 1.69,-0.83 3.431,-1.664 5.207,-2.524 2.046,4.188 4.075,8.335 6.063,12.456 m 15.998,47.358 c -1.84,0.157 -3.648,0.293 -5.406,0.449 -1.735,-3.472 -3.502,-6.978 -5.258,-10.503 1.738,-0.245 3.499,-0.519 5.302,-0.792 1.798,3.643 3.574,7.259 5.362,10.846 m -14.873,-16.26 c -1.653,0.316 -3.273,0.622 -4.858,0.93 -1.747,-3.468 -3.53,-6.962 -5.316,-10.478 1.553,-0.409 3.134,-0.838 4.744,-1.275 1.805,3.639 3.641,7.243 5.43,10.823 M 26.92,361.286 c -1.734,0.496 -3.435,0.976 -5.095,1.449 -1.85,-3.705 -3.742,-7.438 -5.605,-11.198 1.615,-0.605 3.28,-1.209 4.968,-1.841 1.929,3.896 3.828,7.756 5.732,11.59 m -6.076,1.728 c -1.61,0.455 -3.188,0.893 -4.722,1.343 -1.812,-3.562 -3.634,-7.143 -5.464,-10.766 1.504,-0.558 3.032,-1.129 4.604,-1.702 1.869,3.738 3.732,7.447 5.582,11.125 m -5.632,1.602 c -1.495,0.419 -2.961,0.828 -4.39,1.247 -1.739,-3.425 -3.529,-6.884 -5.322,-10.362 1.394,-0.519 2.824,-1.039 4.274,-1.582 1.816,3.593 3.626,7.159 5.438,10.697 m 4.814,-17.271 c -1.684,0.655 -3.337,1.288 -4.945,1.92 -1.897,-3.81 -3.807,-7.653 -5.765,-11.522 1.565,-0.763 3.172,-1.535 4.81,-2.332 1.98,4.007 3.942,7.991 5.9,11.934 m -5.895,2.288 c -1.562,0.597 -3.086,1.193 -4.578,1.777 -1.854,-3.662 -3.713,-7.353 -5.61,-11.063 1.452,-0.698 2.932,-1.421 4.449,-2.155 1.935,3.845 3.849,7.659 5.739,11.441 m 9.056,33.004 c 0.366,-0.052 0.731,-0.114 1.101,-0.164 0.335,0.646 0.658,1.295 0.993,1.938 -0.702,-0.586 -1.397,-1.181 -2.094,-1.774 M 7.251,369.148 c 1.275,-0.344 2.576,-0.69 3.899,-1.043 1.327,2.583 2.662,5.147 3.97,7.704 -2.615,-2.223 -5.242,-4.437 -7.869,-6.661 m 2.853,-3.079 c -1.392,0.393 -2.75,0.792 -4.098,1.162 -1.735,-3.309 -3.432,-6.64 -5.193,-9.995 1.304,-0.481 2.63,-0.98 3.986,-1.477 1.773,3.461 3.54,6.9 5.305,10.31 M 613,0 v 32.24 c -39.828,19.998 -75.614,37.953 -107.949,54.186 0.122,-22.48 0.303,-45.794 0.357,-69.96 C 514.132,11.132 523.105,5.646 532.341,0 Z M 486.766,95.605 c -28.253,14.181 -54.051,27.111 -77.681,38.991 -1.356,-18.299 -2.84,-37.149 -4.313,-56.621 24.628,-15.046 51.624,-31.542 81.326,-49.707 0.221,23.263 0.451,45.686 0.668,67.337 M 507.862,0 c -0.795,0.505 -1.589,1.009 -2.38,1.511 0.003,-0.503 0.006,-1.007 0.009,-1.511 z M 397.764,140.277 c -20.864,10.469 -40.149,20.146 -58.027,29.125 -2.162,-15.439 -4.301,-31.338 -6.608,-47.641 18.402,-11.224 38.299,-23.402 59.902,-36.61 1.661,18.928 3.201,37.309 4.733,55.126 m -68.146,34.205 c -15.93,8.001 -30.805,15.457 -44.718,22.449 -2.553,-13.313 -5.153,-26.945 -7.822,-40.909 14.17,-8.664 29.359,-17.938 45.668,-27.91 2.366,15.861 4.667,31.318 6.872,46.37 m -52.643,26.426 c -12.566,6.301 -24.38,12.235 -35.512,17.824 -2.731,-11.682 -5.528,-23.615 -8.401,-35.807 11.252,-6.877 23.209,-14.196 35.961,-21.979 2.711,13.635 5.341,26.954 7.952,39.962 M 392.025,73.506 c -21.761,13.809 -41.793,26.509 -60.286,38.253 -2.384,-17.053 -4.776,-34.615 -7.301,-52.669 19.035,-14.458 39.725,-30.183 62.286,-47.322 1.846,21.248 3.575,41.823 5.301,61.738 m -124.659,79.101 c -12.781,8.115 -24.778,15.718 -36.049,22.875 -2.983,-12.628 -5.984,-25.543 -9.091,-38.746 11.381,-8.64 23.511,-17.852 36.469,-27.701 2.961,14.884 5.863,29.4 8.671,43.572 M 303.752,0 c 2.859,19.382 5.682,38.186 8.373,56.468 C 295.276,69.734 279.652,82.035 265.118,93.451 262.107,77.54 258.953,61.224 255.752,44.459 270.453,30.753 286.306,15.979 303.467,0 Z m -46.866,99.93 c -12.993,10.222 -25.149,19.786 -36.549,28.745 -3.216,-13.69 -6.529,-27.693 -9.863,-42.039 11.484,-10.702 23.766,-22.131 36.922,-34.393 3.259,16.301 6.421,32.192 9.49,47.687 m -20.863,121.535 c -10.207,5.129 -19.874,9.966 -29.027,14.565 -2.802,-10.427 -5.704,-21.06 -8.621,-31.903 9.192,-5.617 18.904,-11.567 29.203,-17.85 2.861,11.981 5.704,23.697 8.445,35.188 m -62.76,31.5 c -7.067,3.55 -13.815,6.94 -20.27,10.177 -2.821,-8.543 -5.638,-17.223 -8.56,-26.047 6.426,-3.918 13.142,-8.035 20.191,-12.34 2.944,9.567 5.827,18.967 8.639,28.21 m 52.558,-73.994 c -10.302,6.54 -20.029,12.717 -29.236,18.55 -3.019,-11.194 -6.115,-22.61 -9.256,-34.262 9.23,-7.004 18.988,-14.441 29.36,-22.308 3.13,12.946 6.143,25.622 9.132,38.02 m -34.52,21.899 c -8.447,5.344 -16.449,10.447 -24.07,15.278 -3.025,-10.016 -6.09,-20.217 -9.229,-30.61 7.59,-5.778 15.589,-11.856 24.036,-18.262 3.159,11.42 6.245,22.618 9.263,33.594 m -28.46,18.063 c -7.045,4.467 -13.756,8.735 -20.168,12.797 -3.005,-9.058 -6.001,-18.277 -9.083,-27.648 6.365,-4.829 13.032,-9.902 20.037,-15.223 3.118,10.208 6.19,20.235 9.214,30.074 m 17.277,-58.623 c -8.439,6.642 -16.435,12.934 -24.024,18.901 -3.231,-10.703 -6.512,-21.612 -9.869,-32.727 7.54,-7.039 15.52,-14.444 23.929,-22.299 3.41,12.287 6.7,24.331 9.964,36.125 m -28.394,22.338 c -6.997,5.501 -13.655,10.747 -20.004,15.738 -3.13,-9.637 -6.395,-19.424 -9.658,-29.395 6.275,-5.861 12.881,-12.001 19.824,-18.469 3.354,10.91 6.652,21.615 9.838,32.126 m -1.914,82.09 c -6.043,3.027 -11.833,5.93 -17.379,8.722 -2.756,-7.845 -5.553,-15.809 -8.397,-23.896 5.501,-3.359 11.243,-6.87 17.237,-10.536 2.887,8.712 5.729,17.279 8.539,25.71 m -20.6,10.338 c -5.204,2.607 -10.202,5.117 -15.005,7.533 -2.719,-7.236 -5.419,-14.579 -8.201,-22.028 4.757,-2.893 9.687,-5.929 14.838,-9.066 2.827,7.972 5.616,15.826 8.368,23.561 m -17.804,8.938 c -4.526,2.269 -8.893,4.453 -13.09,6.573 -2.62,-6.724 -5.271,-13.532 -7.98,-20.427 4.146,-2.531 8.447,-5.156 12.907,-7.888 2.757,7.347 5.481,14.596 8.163,21.742 m 7.719,-37.34 c -5.144,3.252 -10.067,6.383 -14.802,9.389 -2.855,-7.616 -5.7,-15.348 -8.628,-23.185 4.67,-3.537 9.525,-7.239 14.592,-11.088 2.976,8.426 5.921,16.714 8.838,24.884 m -17.556,11.139 c -4.456,2.82 -8.734,5.546 -12.865,8.164 -2.74,-7.05 -5.56,-14.188 -8.373,-21.434 4.053,-3.083 8.266,-6.283 12.648,-9.606 2.932,7.732 5.806,15.355 8.59,22.876 m 27.022,-56.972 c -5.914,4.657 -11.577,9.103 -16.988,13.364 -3.085,-8.767 -6.206,-17.675 -9.394,-26.728 5.336,-4.964 10.917,-10.164 16.761,-15.61 3.272,9.822 6.47,19.48 9.621,28.974 m -20.125,15.831 c -5.045,3.98 -9.896,7.786 -14.544,11.448 -3,-8.026 -6.047,-16.168 -9.101,-24.441 4.562,-4.264 9.342,-8.685 14.301,-13.325 3.159,8.911 6.295,17.682 9.344,26.318 m -17.249,13.57 c -4.364,3.434 -8.563,6.737 -12.601,9.914 -2.897,-7.397 -5.799,-14.906 -8.794,-22.506 3.961,-3.679 8.079,-7.504 12.348,-11.503 3.07,8.15 6.054,16.187 9.047,24.095 m 5.012,61.391 c -3.98,2.005 -7.833,3.935 -11.554,5.801 -2.573,-6.278 -5.108,-12.639 -7.755,-19.074 3.658,-2.231 7.446,-4.541 11.362,-6.946 2.694,6.829 5.311,13.57 7.947,20.219 m -13.727,6.89 c -3.525,1.774 -6.928,3.501 -10.246,5.143 -2.506,-5.883 -4.974,-11.832 -7.528,-17.857 3.241,-1.979 6.587,-4.037 10.056,-6.143 2.618,6.362 5.167,12.648 7.718,18.857 m 4.152,-31.246 c -3.904,2.485 -7.678,4.877 -11.323,7.186 -2.675,-6.567 -5.407,-13.214 -8.113,-19.953 3.56,-2.723 7.269,-5.52 11.104,-8.435 2.822,7.157 5.608,14.227 8.332,21.202 m -13.448,8.533 c -3.445,2.194 -6.777,4.314 -10.012,6.355 -2.597,-6.14 -5.201,-12.351 -7.854,-18.632 3.157,-2.395 6.418,-4.882 9.795,-7.44 2.702,6.657 5.379,13.229 8.071,19.717 m -11.901,7.552 c -3.071,1.936 -6.032,3.832 -8.914,5.658 -2.513,-5.763 -5.043,-11.585 -7.597,-17.475 2.804,-2.14 5.707,-4.341 8.704,-6.609 2.631,6.212 5.23,12.358 7.807,18.426 m 2.18,-31.305 c -3.364,2.638 -6.605,5.203 -9.747,7.671 -2.693,-6.41 -5.405,-12.896 -8.2,-19.457 3.066,-2.845 6.223,-5.798 9.503,-8.854 2.86,6.966 5.638,13.852 8.444,20.64 m -11.581,9.114 c -2.979,2.344 -5.866,4.609 -8.66,6.809 -2.619,-5.998 -5.243,-12.063 -7.916,-18.201 2.714,-2.535 5.528,-5.14 8.423,-7.843 2.743,6.489 5.478,12.896 8.153,19.235 m 7.799,48.797 c -2.828,1.415 -5.572,2.792 -8.236,4.134 -2.324,-5.229 -4.698,-10.517 -7.081,-15.856 2.603,-1.599 5.286,-3.236 8.052,-4.922 2.452,5.61 4.879,11.157 7.265,16.644 m -18.65,9.361 c -2.312,1.157 -4.555,2.292 -6.748,3.388 -2.21,-4.705 -4.424,-9.446 -6.661,-14.239 2.139,-1.3 4.323,-2.648 6.579,-4.021 2.266,5.012 4.566,9.966 6.83,14.872 m 9.901,-29.398 c -2.754,1.739 -5.414,3.446 -8.01,5.082 -2.439,-5.43 -4.868,-10.923 -7.357,-16.472 2.521,-1.92 5.123,-3.9 7.809,-5.932 2.54,5.836 5.048,11.617 7.558,17.322 m -9.53,6.048 c -2.474,1.573 -4.875,3.101 -7.22,4.582 -2.342,-5.135 -4.731,-10.319 -7.12,-15.56 2.271,-1.73 4.618,-3.499 7.022,-5.337 2.474,5.497 4.887,10.94 7.318,16.315 m -8.594,5.454 c -2.242,1.415 -4.419,2.801 -6.541,4.149 -2.289,-4.867 -4.562,-9.781 -6.893,-14.741 2.058,-1.566 4.185,-3.165 6.354,-4.823 2.388,5.187 4.761,10.324 7.08,15.415 m 9.022,-32.357 c -2.665,2.103 -5.258,4.13 -7.764,6.108 -2.523,-5.646 -5.067,-11.357 -7.649,-17.127 2.436,-2.268 4.953,-4.598 7.538,-7.016 2.667,6.077 5.28,12.092 7.875,18.035 m -9.236,7.263 c -2.402,1.877 -4.721,3.714 -6.981,5.495 -2.463,-5.321 -4.911,-10.705 -7.388,-16.141 2.193,-2.036 4.437,-4.148 6.764,-6.306 2.561,5.712 5.1,11.362 7.605,16.952 m -8.308,6.538 c -2.163,1.703 -4.27,3.351 -6.316,4.966 -2.354,-5.039 -4.734,-10.126 -7.141,-15.264 1.972,-1.855 4.031,-3.726 6.112,-5.688 2.466,5.381 4.913,10.713 7.345,15.986 m 8.9,40.389 c -2.107,1.061 -4.164,2.087 -6.166,3.095 -2.137,-4.48 -4.313,-8.998 -6.467,-13.565 1.951,-1.189 3.95,-2.409 6.002,-3.666 2.235,4.757 4.456,9.466 6.631,14.136 m -7.345,3.687 c -1.927,0.964 -3.807,1.909 -5.643,2.832 -2.076,-4.274 -4.163,-8.584 -6.275,-12.933 1.787,-1.088 3.61,-2.209 5.485,-3.352 2.172,4.526 4.278,9.01 6.433,13.453 M 25.23,306.255 c -2.033,1.308 -4.039,2.546 -5.969,3.786 -2.214,-4.627 -4.43,-9.303 -6.684,-14.019 1.886,-1.42 3.805,-2.894 5.79,-4.396 2.32,4.923 4.598,9.797 6.863,14.629 m -13.606,8.633 c -1.708,1.081 -3.373,2.137 -5.002,3.172 -2.071,-4.214 -4.184,-8.455 -6.286,-12.741 1.577,-1.195 3.191,-2.417 4.843,-3.674 2.148,4.453 4.336,8.863 6.445,13.243 m 1.486,18.467 c -1.635,0.809 -3.228,1.619 -4.789,2.403 -1.968,-3.917 -3.923,-7.866 -5.928,-11.846 1.516,-0.925 3.061,-1.874 4.644,-2.839 2.041,4.127 4.07,8.22 6.073,12.282 M 291.388,0 C 278.175,12.661 265.767,24.557 254.083,35.736 251.86,24.037 249.562,12.134 247.239,0 Z m -54.377,0 c 2.976,14.914 5.867,29.501 8.697,43.762 C 232.525,56.39 220.223,68.169 208.727,79.192 205.222,64.331 201.636,49.107 198.008,33.496 207.356,22.967 217.239,11.814 227.728,0 Z M 216.342,0 C 209.197,8.312 202.344,16.286 195.77,23.951 193.913,16.067 192.043,8.084 190.151,0 Z m -13.198,84.538 c -10.425,9.999 -20.227,19.386 -29.46,28.229 -3.473,-12.977 -7.076,-26.215 -10.745,-39.749 9.218,-10.377 19.004,-21.441 29.467,-33.207 3.69,15.261 7.238,30.169 10.738,44.727 m -34.747,33.289 c -8.417,8.054 -16.365,15.686 -23.907,22.902 -3.426,-11.452 -6.988,-23.116 -10.56,-35.023 7.474,-8.422 15.37,-17.332 23.749,-26.756 3.624,13.242 7.183,26.202 10.718,38.877 m -28.241,27.053 c -6.935,6.632 -13.512,12.957 -19.784,18.96 -3.354,-10.241 -6.799,-20.655 -10.275,-31.273 6.178,-6.974 12.687,-14.3 19.541,-22.024 3.575,11.67 7.09,23.109 10.518,34.337 M 182.842,0 c 2.482,10.317 4.929,20.472 7.319,30.471 C 179.7,42.626 169.909,54.038 160.706,64.753 156.929,50.722 153.063,36.373 149.076,21.714 154.193,14.741 159.504,7.512 165.013,0 Z m -27.394,70.871 c -8.36,9.726 -16.239,18.914 -23.704,27.58 -3.691,-12.293 -7.476,-24.829 -11.347,-37.624 7.354,-10.055 15.169,-20.692 23.456,-31.997 3.967,14.319 7.831,28.331 11.595,42.041 m -27.989,32.562 c -6.824,7.963 -13.32,15.505 -19.484,22.677 -3.607,-10.916 -7.24,-22.049 -10.967,-33.381 6.045,-8.264 12.428,-16.962 19.167,-26.145 3.803,12.542 7.596,24.814 11.284,36.849 M 155.712,0 c -3.085,4.343 -6.104,8.591 -9.06,12.749 C 145.507,8.526 144.354,4.277 143.192,0 Z m -19.823,0 c 1.87,6.764 3.723,13.457 5.55,20.084 -8.281,11.627 -16.055,22.596 -23.397,32.939 -4.019,-13.215 -8.049,-26.733 -12.217,-40.526 2.48,-4.075 5.008,-8.24 7.59,-12.497 z M 113.836,58.946 C 107.118,68.386 100.763,77.332 94.739,85.831 90.907,74.15 86.975,62.258 83.01,50.122 c 5.889,-9.708 12.122,-19.953 18.683,-30.816 4.188,13.471 8.173,26.703 12.143,39.64 m 3.449,107.845 c -5.834,5.581 -11.388,10.933 -16.716,16.019 -3.276,-9.277 -6.575,-18.707 -9.945,-28.296 5.224,-5.882 10.697,-12.053 16.434,-18.523 3.483,10.446 6.855,20.718 10.227,30.8 m -19.797,18.967 c -4.945,4.756 -9.704,9.294 -14.254,13.653 -3.165,-8.453 -6.334,-17.047 -9.592,-25.763 4.462,-5.012 9.104,-10.255 13.962,-15.726 3.346,9.428 6.637,18.707 9.884,27.836 m -16.896,16.188 c -4.27,4.074 -8.351,8.017 -12.3,11.782 -3.007,-7.772 -6.097,-15.652 -9.236,-23.64 3.843,-4.332 7.844,-8.832 12.004,-13.528 3.222,8.589 6.384,17.051 9.532,25.386 m 24.355,-72.316 c -5.726,6.654 -11.182,12.988 -16.372,19.058 -3.497,-9.845 -6.967,-19.865 -10.562,-30.047 5.08,-6.943 10.418,-14.219 16.026,-21.861 3.704,11.151 7.339,22.098 10.908,32.85 m -19.379,22.555 c -4.838,5.624 -9.464,11.013 -13.897,16.167 -3.322,-8.942 -6.725,-18.007 -10.135,-27.234 4.31,-5.889 8.824,-12.035 13.54,-18.471 3.55,10.012 7.04,19.86 10.492,29.538 M 69.1,171.344 c -4.147,4.813 -8.119,9.446 -11.938,13.894 -3.203,-8.175 -6.431,-16.478 -9.724,-24.892 3.708,-5.059 7.576,-10.317 11.596,-15.817 3.396,9.078 6.749,18.014 10.066,26.815 M 91.785,89.991 c -5.589,7.85 -10.881,15.34 -15.949,22.452 C 72.161,101.974 68.401,91.327 64.602,80.481 69.515,72.368 74.686,63.846 80.125,54.877 84.078,66.81 87.97,78.508 91.785,89.991 m -18.87,26.567 c -4.692,6.606 -9.177,12.916 -13.465,18.958 -3.541,-9.454 -7.113,-19.064 -10.733,-28.833 4.152,-6.845 8.493,-14.01 13.047,-21.521 3.767,10.651 7.503,21.107 11.151,31.396 m -15.953,22.459 c -4.013,5.621 -7.843,11.028 -11.518,16.217 -3.405,-8.609 -6.786,-17.364 -10.256,-26.244 3.563,-5.844 7.251,-11.969 11.123,-18.341 3.58,9.612 7.192,19.05 10.651,28.368 m 9.377,76.583 c -3.717,3.563 -7.309,6.986 -10.753,10.304 -2.934,-7.197 -5.894,-14.488 -8.896,-21.88 3.364,-3.778 6.843,-7.714 10.466,-11.795 3.094,7.903 6.148,15.693 9.183,23.371 m -12.766,12.233 c -3.272,3.114 -6.413,6.145 -9.458,9.058 -2.796,-6.695 -5.659,-13.463 -8.564,-20.317 2.956,-3.323 6.018,-6.767 9.181,-10.342 2.99,7.296 5.932,14.496 8.841,21.601 m -11.238,10.763 c -2.877,2.768 -5.668,5.444 -8.377,8.026 -2.71,-6.245 -5.459,-12.564 -8.243,-18.958 2.612,-2.953 5.322,-5.993 8.114,-9.147 2.89,6.776 5.688,13.469 8.506,20.079 m 12.937,-51.158 c -3.595,4.198 -7.073,8.216 -10.407,12.108 -3.068,-7.55 -6.17,-15.202 -9.334,-22.96 3.231,-4.402 6.58,-8.989 10.076,-13.741 3.259,8.316 6.484,16.51 9.665,24.593 m -12.35,14.372 c -3.161,3.651 -6.19,7.191 -9.12,10.611 -2.951,-6.998 -5.934,-14.081 -8.959,-21.258 2.841,-3.849 5.761,-7.862 8.806,-12.012 3.137,7.654 6.197,15.213 9.273,22.659 m -10.835,12.604 c -2.786,3.218 -5.448,6.363 -8.054,9.378 -2.836,-6.518 -5.697,-13.113 -8.606,-19.787 2.512,-3.404 5.089,-6.94 7.765,-10.588 3.013,7.085 5.969,14.083 8.895,20.997 M 43.62,157.798 c -3.453,4.891 -6.795,9.572 -10.004,14.085 -3.237,-7.925 -6.499,-15.967 -9.809,-24.12 3.078,-5.089 6.294,-10.373 9.63,-15.878 3.448,8.765 6.83,17.407 10.183,25.913 M 31.751,174.51 c -3.016,4.253 -5.93,8.35 -8.741,12.304 -3.097,-7.32 -6.218,-14.741 -9.382,-22.261 2.684,-4.446 5.5,-9.036 8.384,-13.834 3.291,8.043 6.54,15.969 9.739,23.791 m -10.378,14.609 c -2.658,3.737 -5.218,7.354 -7.701,10.844 -2.955,-6.804 -5.943,-13.692 -8.986,-20.663 2.366,-3.92 4.831,-7.962 7.373,-12.157 3.148,7.422 6.269,14.741 9.314,21.976 m 2.324,67.334 c -2.31,2.21 -4.549,4.361 -6.729,6.446 -2.518,-5.526 -5.072,-11.106 -7.663,-16.747 2.094,-2.371 4.261,-4.802 6.492,-7.314 2.662,5.939 5.276,11.811 7.9,17.615 m -8.006,7.668 c -2.085,1.989 -4.086,3.952 -6.073,5.819 -2.415,-5.221 -4.91,-10.485 -7.392,-15.805 1.891,-2.141 3.848,-4.33 5.847,-6.593 2.552,5.588 5.097,11.112 7.618,16.579 m 7.047,-38.828 c -2.474,2.879 -4.871,5.669 -7.193,8.371 -2.728,-6.107 -5.491,-12.284 -8.274,-18.531 2.224,-3.053 4.531,-6.191 6.917,-9.432 2.876,6.61 5.726,13.139 8.55,19.592 M 106.818,0 c -1.06,1.797 -2.11,3.578 -3.151,5.344 C 103.132,3.567 102.595,1.786 102.057,0 Z m -11.04,0 c 1.266,4.132 2.524,8.237 3.775,12.316 -6.54,11.11 -12.75,21.585 -18.606,31.527 C 76.839,31.351 72.654,18.61 68.389,5.616 69.322,3.762 70.264,1.89 71.214,0 Z M 78.077,48.71 C 72.668,57.887 67.528,66.597 62.633,74.879 58.685,63.752 54.741,52.403 50.675,40.86 55.401,31.464 60.346,21.558 65.606,11.149 69.84,23.917 74.009,36.428 78.077,48.71 M 59.81,79.659 c -4.543,7.654 -8.849,14.985 -12.97,21.98 -3.715,-10.013 -7.549,-20.177 -11.368,-30.533 3.969,-7.889 8.119,-16.16 12.484,-24.835 4.018,11.33 7.969,22.458 11.854,33.388 m -15.359,26.03 c -3.833,6.516 -7.522,12.747 -11.05,18.721 -3.572,-9.079 -7.137,-18.312 -10.808,-27.676 3.379,-6.714 6.917,-13.72 10.585,-21.066 3.841,10.165 7.587,20.173 11.273,30.021 M 61.906,0 C 62.28,1.126 62.653,2.249 63.025,3.371 57.807,14.057 52.896,24.21 48.204,33.831 44.312,22.748 40.372,11.467 36.319,0 Z M 45.508,39.378 C 41.178,48.259 37.063,56.735 33.131,64.813 29.178,54.185 25.171,43.369 21.057,32.373 24.794,23.289 28.71,13.754 32.853,3.752 c 4.309,12.09 8.521,23.964 12.655,35.626 m -14.65,30.109 c -3.668,7.494 -7.142,14.687 -10.491,21.559 -3.761,-9.6 -7.582,-19.351 -11.43,-29.264 3.16,-7.706 6.477,-15.75 9.958,-24.162 4.052,10.8 8.025,21.428 11.963,31.867 M 28.787,0 C 25.219,8.933 21.822,17.494 18.563,25.682 15.42,17.232 12.219,8.675 8.992,0 Z m 2.87,127.363 c -3.305,5.626 -6.491,11.018 -9.555,16.198 -3.388,-8.33 -6.82,-16.777 -10.309,-25.344 2.917,-5.811 5.979,-11.848 9.13,-18.165 3.64,9.243 7.215,18.346 10.734,27.311 m -11.339,19.214 c -2.872,4.879 -5.654,9.575 -8.322,14.104 -3.219,-7.671 -6.505,-15.44 -9.827,-23.315 2.537,-5.061 5.192,-10.306 7.927,-15.769 3.439,8.449 6.873,16.764 10.222,24.98"
                         style="fill:url(#radialGradient3571);stroke:none"
                         id="path3573"
                         inkscape:connector-curvature="0" /></g></g></g></g></g></g></g></g></g></g></svg>